<mxfile host="app.diagrams.net" modified="2023-06-08T00:16:11.225Z" agent="Mozilla/5.0 (Windows NT 10.0; Win64; x64) AppleWebKit/537.36 (KHTML, like Gecko) Chrome/114.0.0.0 Safari/537.36" etag="j1XCZVhP9ep9zRPmLfNT" version="21.3.7" type="google">
  <diagram name="Page-1" id="5mLPmDPQ1kkUMSueSlFQ">
    <mxGraphModel grid="1" page="1" gridSize="10" guides="1" tooltips="1" connect="1" arrows="1" fold="1" pageScale="1" pageWidth="850" pageHeight="1100" math="0" shadow="0">
      <root>
        <mxCell id="0" />
        <mxCell id="1" parent="0" />
        <mxCell id="t4f0v5-P-y_MdGWt8-OI-17" style="edgeStyle=orthogonalEdgeStyle;rounded=0;orthogonalLoop=1;jettySize=auto;html=1;exitX=0.5;exitY=1;exitDx=0;exitDy=0;entryX=0.5;entryY=0;entryDx=0;entryDy=0;" edge="1" parent="1" source="t4f0v5-P-y_MdGWt8-OI-1" target="t4f0v5-P-y_MdGWt8-OI-2">
          <mxGeometry relative="1" as="geometry" />
        </mxCell>
        <mxCell id="t4f0v5-P-y_MdGWt8-OI-1" value="&lt;font face=&quot;Times New Roman&quot;&gt;Hello Pet&lt;/font&gt;" style="rounded=0;whiteSpace=wrap;html=1;" vertex="1" parent="1">
          <mxGeometry x="340" y="110" width="80" height="30" as="geometry" />
        </mxCell>
        <mxCell id="t4f0v5-P-y_MdGWt8-OI-18" style="edgeStyle=orthogonalEdgeStyle;rounded=0;orthogonalLoop=1;jettySize=auto;html=1;exitX=0.5;exitY=1;exitDx=0;exitDy=0;entryX=0.5;entryY=0;entryDx=0;entryDy=0;" edge="1" parent="1" source="t4f0v5-P-y_MdGWt8-OI-2" target="t4f0v5-P-y_MdGWt8-OI-3">
          <mxGeometry relative="1" as="geometry" />
        </mxCell>
        <mxCell id="t4f0v5-P-y_MdGWt8-OI-2" value="&lt;font face=&quot;Times New Roman&quot;&gt;Login/Register&lt;/font&gt;" style="rounded=0;whiteSpace=wrap;html=1;" vertex="1" parent="1">
          <mxGeometry x="340" y="170" width="80" height="30" as="geometry" />
        </mxCell>
        <mxCell id="t4f0v5-P-y_MdGWt8-OI-19" style="edgeStyle=orthogonalEdgeStyle;rounded=0;orthogonalLoop=1;jettySize=auto;html=1;exitX=0.5;exitY=1;exitDx=0;exitDy=0;entryX=0.475;entryY=-0.093;entryDx=0;entryDy=0;entryPerimeter=0;" edge="1" parent="1" source="t4f0v5-P-y_MdGWt8-OI-3" target="t4f0v5-P-y_MdGWt8-OI-4">
          <mxGeometry relative="1" as="geometry" />
        </mxCell>
        <mxCell id="t4f0v5-P-y_MdGWt8-OI-3" value="&lt;font face=&quot;Times New Roman&quot;&gt;Create User and Pet Profile&lt;/font&gt;" style="rounded=0;whiteSpace=wrap;html=1;" vertex="1" parent="1">
          <mxGeometry x="340" y="230" width="80" height="30" as="geometry" />
        </mxCell>
        <mxCell id="t4f0v5-P-y_MdGWt8-OI-20" style="edgeStyle=orthogonalEdgeStyle;rounded=0;orthogonalLoop=1;jettySize=auto;html=1;exitX=0.5;exitY=1;exitDx=0;exitDy=0;entryX=0.5;entryY=0;entryDx=0;entryDy=0;" edge="1" parent="1" source="t4f0v5-P-y_MdGWt8-OI-4" target="t4f0v5-P-y_MdGWt8-OI-5">
          <mxGeometry relative="1" as="geometry" />
        </mxCell>
        <mxCell id="t4f0v5-P-y_MdGWt8-OI-4" value="&lt;font face=&quot;Times New Roman&quot;&gt;Adoption System&lt;/font&gt;" style="rounded=0;whiteSpace=wrap;html=1;" vertex="1" parent="1">
          <mxGeometry x="340" y="290" width="80" height="30" as="geometry" />
        </mxCell>
        <mxCell id="t4f0v5-P-y_MdGWt8-OI-21" style="edgeStyle=orthogonalEdgeStyle;rounded=0;orthogonalLoop=1;jettySize=auto;html=1;exitX=0.5;exitY=1;exitDx=0;exitDy=0;entryX=0.5;entryY=0;entryDx=0;entryDy=0;" edge="1" parent="1" source="t4f0v5-P-y_MdGWt8-OI-5" target="t4f0v5-P-y_MdGWt8-OI-6">
          <mxGeometry relative="1" as="geometry" />
        </mxCell>
        <mxCell id="t4f0v5-P-y_MdGWt8-OI-5" value="&lt;font face=&quot;Times New Roman&quot;&gt;Scheduling&lt;/font&gt;" style="rounded=0;whiteSpace=wrap;html=1;" vertex="1" parent="1">
          <mxGeometry x="340" y="350" width="80" height="30" as="geometry" />
        </mxCell>
        <mxCell id="t4f0v5-P-y_MdGWt8-OI-6" value="&lt;font face=&quot;Times New Roman&quot;&gt;Training&lt;/font&gt;" style="rounded=0;whiteSpace=wrap;html=1;" vertex="1" parent="1">
          <mxGeometry x="340" y="410" width="80" height="30" as="geometry" />
        </mxCell>
        <mxCell id="t4f0v5-P-y_MdGWt8-OI-7" value="&lt;font face=&quot;Times New Roman&quot;&gt;Disease Symptom Analysis&lt;/font&gt;" style="rounded=0;whiteSpace=wrap;html=1;" vertex="1" parent="1">
          <mxGeometry x="230" y="470" width="80" height="50" as="geometry" />
        </mxCell>
        <mxCell id="t4f0v5-P-y_MdGWt8-OI-22" style="edgeStyle=orthogonalEdgeStyle;rounded=0;orthogonalLoop=1;jettySize=auto;html=1;exitX=0.5;exitY=1;exitDx=0;exitDy=0;entryX=0.5;entryY=0;entryDx=0;entryDy=0;" edge="1" parent="1" source="t4f0v5-P-y_MdGWt8-OI-8" target="t4f0v5-P-y_MdGWt8-OI-23">
          <mxGeometry relative="1" as="geometry">
            <mxPoint x="380" y="540" as="targetPoint" />
          </mxGeometry>
        </mxCell>
        <mxCell id="t4f0v5-P-y_MdGWt8-OI-8" value="&lt;font face=&quot;Times New Roman&quot;&gt;Breed detection&lt;/font&gt;" style="rounded=0;whiteSpace=wrap;html=1;" vertex="1" parent="1">
          <mxGeometry x="340" y="480" width="80" height="30" as="geometry" />
        </mxCell>
        <mxCell id="t4f0v5-P-y_MdGWt8-OI-9" value="&lt;font face=&quot;Times New Roman&quot;&gt;Shop products&lt;/font&gt;" style="rounded=0;whiteSpace=wrap;html=1;" vertex="1" parent="1">
          <mxGeometry x="450" y="480" width="80" height="30" as="geometry" />
        </mxCell>
        <mxCell id="t4f0v5-P-y_MdGWt8-OI-12" value="" style="endArrow=none;html=1;rounded=0;" edge="1" parent="1">
          <mxGeometry width="50" height="50" relative="1" as="geometry">
            <mxPoint x="270" y="450" as="sourcePoint" />
            <mxPoint x="490" y="450" as="targetPoint" />
          </mxGeometry>
        </mxCell>
        <mxCell id="t4f0v5-P-y_MdGWt8-OI-13" value="" style="endArrow=classic;html=1;rounded=0;entryX=0.5;entryY=0;entryDx=0;entryDy=0;" edge="1" parent="1" target="t4f0v5-P-y_MdGWt8-OI-7">
          <mxGeometry width="50" height="50" relative="1" as="geometry">
            <mxPoint x="270" y="450" as="sourcePoint" />
            <mxPoint x="460" y="440" as="targetPoint" />
          </mxGeometry>
        </mxCell>
        <mxCell id="t4f0v5-P-y_MdGWt8-OI-15" value="" style="endArrow=classic;html=1;rounded=0;entryX=0.5;entryY=0;entryDx=0;entryDy=0;" edge="1" parent="1" target="t4f0v5-P-y_MdGWt8-OI-9">
          <mxGeometry width="50" height="50" relative="1" as="geometry">
            <mxPoint x="490" y="450" as="sourcePoint" />
            <mxPoint x="460" y="440" as="targetPoint" />
          </mxGeometry>
        </mxCell>
        <mxCell id="t4f0v5-P-y_MdGWt8-OI-16" value="" style="endArrow=classic;html=1;rounded=0;exitX=0.5;exitY=1;exitDx=0;exitDy=0;entryX=0.5;entryY=0;entryDx=0;entryDy=0;" edge="1" parent="1" source="t4f0v5-P-y_MdGWt8-OI-6" target="t4f0v5-P-y_MdGWt8-OI-8">
          <mxGeometry width="50" height="50" relative="1" as="geometry">
            <mxPoint x="410" y="530" as="sourcePoint" />
            <mxPoint x="460" y="480" as="targetPoint" />
          </mxGeometry>
        </mxCell>
        <mxCell id="t4f0v5-P-y_MdGWt8-OI-23" value="&lt;font face=&quot;Times New Roman&quot;&gt;Vet Services&lt;/font&gt;" style="rounded=0;whiteSpace=wrap;html=1;" vertex="1" parent="1">
          <mxGeometry x="340" y="550" width="80" height="30" as="geometry" />
        </mxCell>
        <mxCell id="t4f0v5-P-y_MdGWt8-OI-24" value="&lt;font face=&quot;Times New Roman&quot;&gt;Community Pets&lt;/font&gt;" style="rounded=0;whiteSpace=wrap;html=1;" vertex="1" parent="1">
          <mxGeometry x="340" y="620" width="80" height="30" as="geometry" />
        </mxCell>
        <mxCell id="t4f0v5-P-y_MdGWt8-OI-26" style="edgeStyle=orthogonalEdgeStyle;rounded=0;orthogonalLoop=1;jettySize=auto;html=1;exitX=0.5;exitY=1;exitDx=0;exitDy=0;entryX=0.5;entryY=0;entryDx=0;entryDy=0;" edge="1" parent="1">
          <mxGeometry relative="1" as="geometry">
            <mxPoint x="379.74" y="620" as="targetPoint" />
            <mxPoint x="379.74" y="580" as="sourcePoint" />
          </mxGeometry>
        </mxCell>
      </root>
    </mxGraphModel>
  </diagram>
</mxfile>
